<svg id="Layer_1" data-name="Layer 1" xmlns="http://www.w3.org/2000/svg" viewBox="0 0 191.29 219.27"><defs><style>.cls-1{fill:#999;}</style></defs><path class="cls-1" d="M95.73,0c9.41,1,19,1.23,28.2,3.16,43,9,68,51.64,63.36,92a21.54,21.54,0,0,1-2.93,8.43c-7.73,12.77-7.1,24.53,2.34,36.45,7,8.79,5.71,18.93-1.79,27.28A18.53,18.53,0,0,1,170,173.93c-13.63-.26-17.89,3-22,16.06a17.35,17.35,0,0,0-1.05,3.85c-.77,10.94-7.68,16.45-17.23,19.57-24.79,8.08-49.33,8.22-73.6-2.2-6.72-2.89-10.62-7.62-11.75-14.89a48.84,48.84,0,0,0-2.72-9.58c-3.77-10-8.22-13-18.78-12.92-12.43.07-21-6.65-22.74-19-.56-3.95,1-8.42,2.36-12.36,1-2.89,3.35-5.32,5.14-7.93,5.28-7.69,6.31-16.15,1.89-24.13C-1,91.36,2,72.3,9.15,53.53,21.68,20.81,50.59,1.27,85.64.81c3.33,0,6.66,0,10,0Zm-45,98.62c-7.49.89-14.93,1.2-19.47,7.91-6.44,9.51-7,20-2.67,30.46,4,9.57,12.73,11.9,22.16,12.38,18.46.94,29.32-6.17,33.76-22.08,3.12-11.17-.62-19.58-11.62-23.48C65.83,101.29,58.18,100.3,50.77,98.62Zm89.13-.1c-7.7,1.84-15.58,3.15-23.05,5.68-6.45,2.19-10.91,7-11.5,14.32a27.81,27.81,0,0,0,23.34,30,61.4,61.4,0,0,0,14.4.45c15.27-1.32,22.57-10.93,21.46-27.69C163.53,106,155.7,99,139.9,98.52Zm-44,86.87a34.51,34.51,0,0,0,2.93,2.07c3.66,2.13,7.74,4.42,11.6,1.49s3.34-7.64,2.22-12a10.71,10.71,0,0,0-.84-2.34c-3.22-6.2-6.29-12.49-9.78-18.53-2.71-4.72-10.56-4.79-13.26-.11a204,204,0,0,0-9.9,19,19.06,19.06,0,0,0-1.16,9.23c.46,4.73,3.45,6.82,8.08,5.64C89.12,189,92.14,187.11,95.94,185.39Z"/></svg>